<?xml version="1.0" standalone="no"?>
<!DOCTYPE svg PUBLIC "-//W3C//DTD SVG 20010904//EN"
 "http://www.w3.org/TR/2001/REC-SVG-20010904/DTD/svg10.dtd">
<svg version="1.0" xmlns="http://www.w3.org/2000/svg"
 width="347.000000pt" height="194.000000pt" viewBox="0 0 347.000000 194.000000"
 preserveAspectRatio="xMidYMid meet">
<rect x="0" y="0" width="100%" height="100%" fill="#ffffff"/>
<g transform="translate(0.000000,194.000000) scale(0.100000,-0.100000)"
fill="#000000" stroke="none">
<path fill="#1e59a4" d="M1620 1875 l-115 -65 -622 0 -623 0 0 -348 0 -348 -116 -65 c-64 -35
-124 -69 -132 -75 -12 -9 10 -25 116 -85 l132 -74 0 -347 0 -348 620 0 621 0
48 -24 c26 -14 75 -41 107 -60 32 -20 70 -36 83 -36 13 0 72 27 131 60 l107
60 621 0 622 0 0 348 0 348 125 70 c69 38 125 73 125 79 0 6 -56 41 -125 79
l-125 70 0 348 0 348 -621 0 -622 0 -116 65 c-64 36 -119 65 -121 65 -3 -1
-57 -30 -120 -65z m-690 -396 c-267 -148 -513 -286 -547 -305 l-63 -35 0 306
0 305 547 0 548 0 -485 -271z m2230 -35 l0 -306 -42 25 c-24 13 -263 147 -533
297 -269 150 -494 277 -499 282 -6 4 234 8 532 8 l542 0 0 -306z m-1355 181
c27 -26 34 -80 15 -116 -19 -34 -66 -52 -105 -39 -59 20 -81 80 -50 140 17 33
27 38 78 39 28 1 45 -6 62 -24z m463 -382 c51 -16 54 -16 63 0 20 35 29 15 29
-68 0 -47 -3 -85 -8 -85 -4 0 -16 15 -26 34 -34 63 -79 98 -135 104 -45 4 -53
2 -80 -25 -35 -36 -51 -87 -51 -168 l0 -60 267 0 267 0 56 140 c35 88 61 140
70 140 9 0 37 -54 74 -142 l59 -143 246 0 c208 0 243 -2 231 -14 -8 -7 -369
-211 -802 -453 l-787 -440 -808 451 -808 451 298 3 297 2 0 114 c0 118 -9 146
-46 146 -8 0 -14 5 -14 10 0 6 36 10 88 10 l87 -1 58 -139 c44 -106 63 -140
77 -140 13 0 31 34 75 140 l58 140 88 0 c53 0 89 -4 89 -10 0 -5 -6 -10 -14
-10 -37 0 -46 -28 -46 -146 l0 -114 110 0 110 0 0 118 c0 122 -6 142 -42 142
-10 0 -18 5 -18 10 0 6 73 10 200 10 l200 0 0 -70 c0 -38 -3 -70 -8 -70 -4 0
-16 19 -27 43 -24 52 -53 67 -127 67 l-58 0 0 -95 c0 -52 4 -95 9 -95 4 0 22
5 39 11 28 10 37 22 56 82 13 39 26 2 26 -74 l0 -79 119 0 118 0 6 60 c8 76
35 128 89 174 67 58 146 70 246 39z m-1338 -792 l485 -271 -548 0 -547 0 0
305 0 306 63 -35 c34 -19 280 -157 547 -305z m2227 -268 c-2 -2 -246 -2 -542
-1 l-539 3 540 302 539 301 3 -300 c1 -166 1 -303 -1 -305z"/>
<path fill="#1e59a4" d="M1711 1558 c1 -29 4 -43 6 -30 5 27 29 29 38 2 3 -11 11 -20 16 -20
7 0 7 6 0 17 -7 13 -5 23 6 35 21 24 1 48 -38 48 -28 0 -29 -1 -28 -52z m54
22 c0 -8 -10 -16 -22 -18 -18 -3 -23 2 -23 18 0 16 5 21 23 18 12 -2 22 -10
22 -18z"/>
<path fill="#1e59a4" d="M1064 1075 l-42 -100 40 -3 c22 -2 42 -1 44 1 3 2 3 49 2 103 l-3 99
-41 -100z"/>
<path fill="#1e59a4" d="M750 1067 l0 -97 40 0 c22 0 40 4 40 8 0 9 -70 174 -76 181 -2 2 -4
-39 -4 -92z"/>
<path fill="#1e59a4" d="M2659 1063 c-13 -37 -25 -71 -27 -75 -2 -4 24 -8 58 -8 55 0 61 2 56
18 -32 87 -52 132 -57 132 -3 0 -16 -30 -30 -67z"/>
<path fill="#1e59a4" d="M1560 985 c0 -11 11 -15 43 -15 39 1 41 2 23 15 -26 20 -66 19 -66 0z"/>
<path fill="#1e59a4" d="M720 892 c0 -70 -10 -92 -42 -92 -10 0 -18 -4 -18 -10 0 -6 32 -10
75 -10 43 0 75 4 75 10 0 6 -8 10 -18 10 -32 0 -42 22 -42 92 0 54 -3 68 -15
68 -12 0 -15 -14 -15 -68z"/>
<path fill="#1e59a4" d="M853 948 c30 -78 71 -168 77 -168 9 0 80 174 73 180 -2 3 -11 -4 -19
-15 -14 -19 -16 -19 -25 -2 -12 21 -115 26 -106 5z"/>
<path fill="#1e59a4" d="M1120 906 c0 -75 -13 -106 -45 -106 -14 0 -25 -4 -25 -10 0 -6 45
-10 115 -10 70 0 115 4 115 10 0 6 -8 10 -18 10 -32 0 -42 22 -42 92 l0 68
-50 0 -50 0 0 -54z"/>
<path fill="#1e59a4" d="M1450 899 c0 -69 -12 -99 -40 -99 -11 0 -20 -5 -20 -10 0 -7 68 -9
197 -8 l197 3 13 69 c7 39 11 72 9 74 -2 2 -17 -16 -32 -39 -45 -66 -73 -82
-146 -83 l-63 -1 -3 78 -3 77 -54 0 -55 0 0 -61z"/>
<path fill="#1e59a4" d="M1661 948 c0 -7 4 -22 9 -33 7 -17 9 -15 9 13 1 17 -3 32 -9 32 -5 0
-10 -6 -9 -12z"/>
<path fill="#1e59a4" d="M1946 938 c21 -71 88 -140 151 -157 55 -16 150 -12 213 7 l55 18 5
77 5 77 -60 0 -60 0 3 -72 c3 -60 1 -74 -14 -85 -27 -20 -97 -16 -127 7 -24
19 -57 95 -57 132 0 15 -9 18 -61 18 -58 0 -60 -1 -53 -22z"/>
<path fill="#1e59a4" d="M2561 885 c-20 -45 -40 -77 -52 -80 -40 -13 -16 -25 51 -25 40 0 70
4 70 10 0 6 -8 10 -19 10 -35 0 -42 23 -25 73 l16 47 79 0 79 0 15 -37 c21
-49 16 -77 -12 -81 -13 -2 -23 -8 -23 -13 0 -5 49 -9 110 -9 67 0 110 4 110
10 0 6 -6 10 -14 10 -17 0 -45 44 -72 112 l-19 48 -131 0 -130 0 -33 -75z"/>
<path fill="#1e59a4" d="M1560 389 c-11 -8 -12 -12 -2 -16 7 -3 12 -23 12 -49 0 -32 4 -44 15
-44 12 0 15 13 15 60 0 62 -8 72 -40 49z"/>
<path fill="#1e59a4" d="M1656 384 c-9 -8 -16 -19 -16 -24 0 -14 30 -40 46 -40 8 0 14 -4 14
-10 0 -5 -11 -10 -25 -10 -14 0 -25 -4 -25 -10 0 -19 59 -11 70 9 22 43 2 101
-35 101 -7 0 -21 -7 -29 -16z m44 -24 c0 -11 -7 -20 -15 -20 -8 0 -15 9 -15
20 0 11 7 20 15 20 8 0 15 -9 15 -20z"/>
<path fill="#1e59a4" d="M1763 393 c-7 -2 -13 -18 -13 -34 0 -22 6 -30 25 -35 14 -3 25 -10
25 -15 0 -5 -11 -9 -25 -9 -14 0 -25 -4 -25 -10 0 -14 54 -12 68 2 7 7 12 28
12 48 0 51 -25 71 -67 53z m37 -33 c0 -11 -7 -20 -15 -20 -8 0 -15 9 -15 20 0
11 7 20 15 20 8 0 15 -9 15 -20z"/>
<path fill="#1e59a4" d="M1858 369 c-3 -20 0 -32 9 -35 7 -2 20 -6 29 -9 22 -7 7 -25 -22 -25
-13 0 -24 -4 -24 -10 0 -5 16 -10 35 -10 28 0 36 4 41 24 7 31 -1 46 -27 46
-10 0 -19 7 -19 15 0 9 9 15 25 15 14 0 25 5 25 10 0 6 -15 10 -34 10 -30 0
-34 -3 -38 -31z"/>
</g>
</svg>
